<svg xmlns="http://www.w3.org/2000/svg" xmlns:xlink="http://www.w3.org/1999/xlink" version="1.1" width="3133.3333333333335" 
height="3133.3333333333335" viewBox="600 600 2000 2000">
    <g transform="scale(6.666666666666667) translate(10, 10)">
        <defs id="SvgjsDefs3520"></defs><g id="SvgjsG3521" featureKey="rootContainer" transform="matrix(9,0,0,9,0,0)" fill="#FDFFF7">
        <circle cx="25" cy="25" r="20"></circle>
        </g>
        <g id="SvgjsG3522" featureKey="UqkkrJ-0" transform="matrix(4.68720817565918,0,0,4.68720817565918,123.99540029776628,116.01960796292344)" fill="#097967">
        <g xmlns="http://www.w3.org/2000/svg"><g>
        <path d="M20.206,48.001c-0.375,0-0.734-0.212-0.905-0.573c-0.235-0.5-0.021-1.096,0.479-1.331l16.374-7.717    c0.5-0.236,1.097-0.021,1.331,0.478c0.235,0.5,0.021,1.096-0.478,1.331l-16.375,7.717C20.494,47.971,20.349,48.001,20.206,48.001z    "></path>
        <path d="M38.278,35.3c-0.375,0-0.735-0.212-0.905-0.573c-0.235-0.5-0.021-1.096,0.478-1.331l3.643-1.717    c0.5-0.237,1.097-0.021,1.331,0.478c0.235,0.5,0.021,1.096-0.478,1.331l-3.643,1.717C38.566,35.27,38.421,35.3,38.278,35.3z"></path>
        <path d="M41.535,42.134c-0.375,0-0.734-0.212-0.905-0.573c-0.235-0.499-0.022-1.096,0.478-1.331l3.642-1.719    c0.5-0.238,1.096-0.021,1.331,0.478s0.022,1.096-0.478,1.331l-3.642,1.719C41.823,42.104,41.678,42.134,41.535,42.134z"></path>
        <path d="M40.007,42.476c-1.778,0-3.504-1.024-4.331-2.762c-0.559-1.176-0.628-2.488-0.196-3.696    c0.418-1.168,1.261-2.1,2.372-2.622c0.499-0.239,1.096-0.021,1.33,0.479c0.235,0.5,0.021,1.096-0.479,1.33    c-0.627,0.296-1.103,0.823-1.34,1.487c-0.252,0.703-0.21,1.472,0.119,2.163c0.66,1.388,2.285,2.006,3.626,1.374    c0.499-0.235,1.095-0.021,1.331,0.479c0.234,0.5,0.021,1.096-0.479,1.331C41.33,42.335,40.665,42.476,40.007,42.476z"></path>
        <path d="M44.925,40.536c-0.375,0-0.734-0.212-0.905-0.573c-0.235-0.499-0.021-1.096,0.478-1.331    c0.629-0.297,1.105-0.826,1.343-1.49c0.251-0.703,0.208-1.471-0.121-2.162c-0.66-1.387-2.289-1.999-3.626-1.373    c-0.501,0.237-1.096,0.021-1.33-0.479c-0.235-0.5-0.021-1.096,0.479-1.33c2.331-1.099,5.15-0.057,6.283,2.321    c0.56,1.175,0.63,2.487,0.199,3.694c-0.417,1.169-1.26,2.102-2.373,2.627C45.213,40.506,45.067,40.536,44.925,40.536z"></path>
        </g>
        <path d="M31.766,38.171H7.949c-0.552,0-1-0.447-1-1V26.107C4.753,25.316-1.06,22.261,0.17,12.342   c0.677-5.475,3.441-7.973,5.642-9.105c3.928-2.022,8.826-1.233,11.047-0.026c0.078,0.042,0.148,0.094,0.21,0.152   c4.718-3.831,9.856-3.397,10.628-3.306c1.15-0.011,11.204,0.172,12.567,11.65c1.193,10.032-5.244,13.48-7.499,14.371v11.092   C32.766,37.724,32.318,38.171,31.766,38.171z M8.949,36.171h21.816V25.368c0-0.459,0.313-0.858,0.757-0.97   c0.323-0.083,7.979-2.182,6.756-12.454C37.063,1.711,28.07,2.04,27.696,2.058c-0.062,0.003-0.131,0-0.194-0.009   c-0.048-0.005-5.153-0.663-9.558,3.193c-4.97,4.348-7.527,4.003-7.986,3.888C9.421,8.998,9.094,8.456,9.226,7.92   c0.132-0.537,0.678-0.864,1.21-0.731c-0.003-0.003,0.013,0.001,0.057,0.001c0.313,0,1.924-0.115,4.921-2.449   C13.586,3.999,9.78,3.445,6.727,5.015C4.15,6.341,2.612,8.888,2.155,12.587c-1.265,10.208,5.691,11.74,5.988,11.8   c0.466,0.095,0.806,0.505,0.806,0.981V36.171z"></path>
        <path d="M14.247,32.604c-0.101,0-0.203-0.015-0.304-0.048c-0.526-0.168-0.816-0.73-0.648-1.257c0.146-0.455,0.331-0.851,0.494-1.2   c0.25-0.533,0.447-0.955,0.497-1.497c0.023-0.253,0.064-0.555,0.11-0.882c0.113-0.816,0.303-2.183,0.05-2.682   c-0.25-0.493-0.052-1.095,0.44-1.344c0.492-0.25,1.094-0.052,1.344,0.44c0.536,1.058,0.32,2.612,0.146,3.86   c-0.041,0.293-0.079,0.563-0.099,0.79c-0.082,0.891-0.398,1.566-0.677,2.162c-0.151,0.323-0.294,0.629-0.4,0.962   C15.064,32.333,14.671,32.604,14.247,32.604z"></path>
        <path d="M23.67,32.206c-0.536,0-0.979-0.425-0.999-0.964c-0.017-0.481-0.139-1.066-0.267-1.687   c-0.339-1.633-0.761-3.665,0.624-5.104c0.383-0.397,1.017-0.409,1.414-0.027c0.397,0.383,0.41,1.016,0.027,1.414   c-0.608,0.632-0.437,1.722-0.107,3.312c0.14,0.674,0.284,1.37,0.308,2.021c0.021,0.552-0.411,1.016-0.963,1.035   C23.695,32.206,23.683,32.206,23.67,32.206z"></path>
        </g></g>
    </g>
</svg>