<svg xmlns="http://www.w3.org/2000/svg" xmlns:xlink="http://www.w3.org/1999/xlink" version="1.1" width="100%" height="120px" viewBox="0 0 3200 2140">
    <g transform="scale(10) translate(10, 10)">
    <defs id="logo"></defs>

        <!-- Logo -->
        <g id="icon" featureKey="icon" transform="matrix(2.1,0,0,2.1,100,0.01)" fill="#097967">
        <g xmlns="http://www.w3.org/2000/svg">
        
            <!-- Spatula -->
            <g>
                <path d="M20.206,48.001c-0.375,0-0.734-0.212-0.905-0.573c-0.235-0.5-0.021-1.096,0.479-1.331l16.374-7.717    c0.5-0.236,1.097-0.021,1.331,0.478c0.235,0.5,0.021,1.096-0.478,1.331l-16.375,7.717C20.494,47.971,20.349,48.001,20.206,48.001z"></path>
                <path d="M38.278,35.3c-0.375,0-0.735-0.212-0.905-0.573c-0.235-0.5-0.021-1.096,0.478-1.331l3.643-1.717    c0.5-0.237,1.097-0.021,1.331,0.478c0.235,0.5,0.021,1.096-0.478,1.331l-3.643,1.717C38.566,35.27,38.421,35.3,38.278,35.3z"></path>
                <path d="M41.535,42.134c-0.375,0-0.734-0.212-0.905-0.573c-0.235-0.499-0.022-1.096,0.478-1.331l3.642-1.719    c0.5-0.238,1.096-0.021,1.331,0.478s0.022,1.096-0.478,1.331l-3.642,1.719C41.823,42.104,41.678,42.134,41.535,42.134z"></path>
                <path d="M40.007,42.476c-1.778,0-3.504-1.024-4.331-2.762c-0.559-1.176-0.628-2.488-0.196-3.696    c0.418-1.168,1.261-2.1,2.372-2.622c0.499-0.239,1.096-0.021,1.33,0.479c0.235,0.5,0.021,1.096-0.479,1.33    c-0.627,0.296-1.103,0.823-1.34,1.487c-0.252,0.703-0.21,1.472,0.119,2.163c0.66,1.388,2.285,2.006,3.626,1.374    c0.499-0.235,1.095-0.021,1.331,0.479c0.234,0.5,0.021,1.096-0.479,1.331C41.33,42.335,40.665,42.476,40.007,42.476z"></path>
                <path d="M44.925,40.536c-0.375,0-0.734-0.212-0.905-0.573c-0.235-0.499-0.021-1.096,0.478-1.331    c0.629-0.297,1.105-0.826,1.343-1.49c0.251-0.703,0.208-1.471-0.121-2.162c-0.66-1.387-2.289-1.999-3.626-1.373    c-0.501,0.237-1.096,0.021-1.33-0.479c-0.235-0.5-0.021-1.096,0.479-1.33c2.331-1.099,5.15-0.057,6.283,2.321    c0.56,1.175,0.63,2.487,0.199,3.694c-0.417,1.169-1.26,2.102-2.373,2.627C45.213,40.506,45.067,40.536,44.925,40.536z"></path>
            </g>

            <!-- Chef's hat -->
            <path d="M31.766,38.171H7.949c-0.552,0-1-0.447-1-1V26.107C4.753,25.316-1.06,22.261,0.17,12.342   c0.677-5.475,3.441-7.973,5.642-9.105c3.928-2.022,8.826-1.233,11.047-0.026c0.078,0.042,0.148,0.094,0.21,0.152   c4.718-3.831,9.856-3.397,10.628-3.306c1.15-0.011,11.204,0.172,12.567,11.65c1.193,10.032-5.244,13.48-7.499,14.371v11.092   C32.766,37.724,32.318,38.171,31.766,38.171z M8.949,36.171h21.816V25.368c0-0.459,0.313-0.858,0.757-0.97   c0.323-0.083,7.979-2.182,6.756-12.454C37.063,1.711,28.07,2.04,27.696,2.058c-0.062,0.003-0.131,0-0.194-0.009   c-0.048-0.005-5.153-0.663-9.558,3.193c-4.97,4.348-7.527,4.003-7.986,3.888C9.421,8.998,9.094,8.456,9.226,7.92   c0.132-0.537,0.678-0.864,1.21-0.731c-0.003-0.003,0.013,0.001,0.057,0.001c0.313,0,1.924-0.115,4.921-2.449   C13.586,3.999,9.78,3.445,6.727,5.015C4.15,6.341,2.612,8.888,2.155,12.587c-1.265,10.208,5.691,11.74,5.988,11.8   c0.466,0.095,0.806,0.505,0.806,0.981V36.171z"></path>
            <path d="M14.247,32.604c-0.101,0-0.203-0.015-0.304-0.048c-0.526-0.168-0.816-0.73-0.648-1.257c0.146-0.455,0.331-0.851,0.494-1.2   c0.25-0.533,0.447-0.955,0.497-1.497c0.023-0.253,0.064-0.555,0.11-0.882c0.113-0.816,0.303-2.183,0.05-2.682   c-0.25-0.493-0.052-1.095,0.44-1.344c0.492-0.25,1.094-0.052,1.344,0.44c0.536,1.058,0.32,2.612,0.146,3.86   c-0.041,0.293-0.079,0.563-0.099,0.79c-0.082,0.891-0.398,1.566-0.677,2.162c-0.151,0.323-0.294,0.629-0.4,0.962   C15.064,32.333,14.671,32.604,14.247,32.604z"></path>
            <path d="M23.67,32.206c-0.536,0-0.979-0.425-0.999-0.964c-0.017-0.481-0.139-1.066-0.267-1.687   c-0.339-1.633-0.761-3.665,0.624-5.104c0.383-0.397,1.017-0.409,1.414-0.027c0.397,0.383,0.41,1.016,0.027,1.414   c-0.608,0.632-0.437,1.722-0.107,3.312c0.14,0.674,0.284,1.37,0.308,2.021c0.021,0.552-0.411,1.016-0.963,1.035   C23.695,32.206,23.683,32.206,23.67,32.206z"></path>
            </g>

        </g>

        <!-- Logo text -->
        <g id="text" featureKey="appetite" transform="matrix(3.75,0,0,3.75,-2.75,100)" fill="#113c4a">
            <path d="M9.6875 17.2754 c0 1.2305 0.11719 2.0117 0.24414 2.4512 l0 0.27344 l-2.627 0 l-0.22461 -1.0938 c-0.75195 0.9082 -2.0508 1.2891 -3.2227 1.2891 c-1.582 0 -3.125 -0.70313 -3.125 -2.793 c0 -2.0801 1.5527 -2.7832 3.6523 -3.2422 l1.6504 -0.37109 c0.71289 -0.16602 0.9668 -0.41016 0.9668 -0.82031 c0 -0.98633 -0.89844 -1.2598 -1.6895 -1.2598 c-1.0156 0 -1.7871 0.40039 -1.9629 1.5332 l-2.4902 -0.44922 c0.41992 -2.0801 1.9434 -3.0273 4.6094 -3.0273 c2.0117 0 4.2188 0.5957 4.2188 3.623 l0 3.8867 z M4.7363 18.291 c1.3379 0 2.4121 -0.88867 2.4121 -2.8809 l-2.3828 0.67383 c-0.78125 0.18555 -1.3477 0.45898 -1.3477 1.1328 c0 0.72266 0.5957 1.0742 1.3184 1.0742 z M18.310596875 9.766 c2.6465 0 4.834 1.9434 4.834 5.2344 s-2.1875 5.2344 -4.834 5.2344 c-1.3086 0 -2.4805 -0.50781 -3.0762 -1.4258 l0 6.0742 l-2.8125 0 l0 -14.922 l2.666 0 l0.078125 1.3477 c0.55664 -0.99609 1.7773 -1.543 3.1445 -1.543 z M17.675796875 17.9004 c1.4746 0 2.6563 -1.0742 2.6563 -2.9004 s-1.1816 -2.9004 -2.6563 -2.9004 c-1.5039 0 -2.6758 1.1426 -2.6758 2.9004 s1.1719 2.9004 2.6758 2.9004 z M31.15239375 9.766 c2.6465 0 4.834 1.9434 4.834 5.2344 s-2.1875 5.2344 -4.834 5.2344 c-1.3086 0 -2.4805 -0.50781 -3.0762 -1.4258 l0 6.0742 l-2.8125 0 l0 -14.922 l2.666 0 l0.078125 1.3477 c0.55664 -0.99609 1.7773 -1.543 3.1445 -1.543 z M30.51759375 17.9004 c1.4746 0 2.6563 -1.0742 2.6563 -2.9004 s-1.1816 -2.9004 -2.6563 -2.9004 c-1.5039 0 -2.6758 1.1426 -2.6758 2.9004 s1.1719 2.9004 2.6758 2.9004 z M47.548390624999996 14.834 l-0.029297 0.67383 l-7.4414 0 c0.11719 1.6699 1.2305 2.4707 2.5684 2.4707 c1.0059 0 1.7871 -0.46875 2.168 -1.3574 l2.5781 0.38086 c-0.66406 2.0313 -2.4707 3.1934 -4.7266 3.1934 c-3.2422 0 -5.3613 -1.9141 -5.3613 -5.2148 s2.1777 -5.2344 5.2734 -5.2344 c2.8418 0 4.9609 1.5723 4.9707 5.0879 z M42.597690625 11.7383 c-1.2793 0 -2.168 0.5957 -2.4414 1.9336 l4.6094 0 c-0.14648 -1.2793 -1.0156 -1.9336 -2.168 -1.9336 z M53.427721875 20 c-1.9531 0 -3.0664 -1.1328 -3.0664 -3.1348 l0 -4.7461 l-1.9727 0 l0 -2.1582 l0.63477 0 c1.0645 0 1.6504 -0.41016 1.6504 -1.9141 l0 -1.3281 l2.5391 0 l0 3.2422 l2.0703 0 l0 2.1582 l-2.0703 0 l0 4.4434 c0 0.89844 0.43945 1.2988 1.1621 1.2988 l0.9082 0 l0 2.1387 l-1.8555 0 z M58.896459375 8.457 c-0.88867 0 -1.6309 -0.72266 -1.6309 -1.6211 c0 -0.88867 0.74219 -1.6113 1.6309 -1.6113 c0.86914 0 1.6113 0.72266 1.6113 1.6113 c0 0.89844 -0.74219 1.6211 -1.6113 1.6211 z M57.460959375 20 l0 -10.039 l2.832 0 l0 10.039 l-2.832 0 z M66.943346875 20 c-1.9531 0 -3.0664 -1.1328 -3.0664 -3.1348 l0 -4.7461 l-1.9727 0 l0 -2.1582 l0.63477 0 c1.0645 0 1.6504 -0.41016 1.6504 -1.9141 l0 -1.3281 l2.5391 0 l0 3.2422 l2.0703 0 l0 2.1582 l-2.0703 0 l0 4.4434 c0 0.89844 0.43945 1.2988 1.1621 1.2988 l0.9082 0 l0 2.1387 l-1.8555 0 z M80.419484375 14.834 l-0.029297 0.67383 l-7.4414 0 c0.11719 1.6699 1.2305 2.4707 2.5684 2.4707 c1.0059 0 1.7871 -0.46875 2.168 -1.3574 l2.5781 0.38086 c-0.66406 2.0313 -2.4707 3.1934 -4.7266 3.1934 c-3.2422 0 -5.3613 -1.9141 -5.3613 -5.2148 s2.1777 -5.2344 5.2734 -5.2344 c2.8418 0 4.9609 1.5723 4.9707 5.0879 z M75.468784375 11.7383 c-1.2793 0 -2.168 0.5957 -2.4414 1.9336 l4.6094 0 c-0.14648 -1.2793 -1.0156 -1.9336 -2.168 -1.9336 z"></path>
        </g>
    </g>
</svg>
